<svg class="main-svg" xmlns="http://www.w3.org/2000/svg" xmlns:xlink="http://www.w3.org/1999/xlink" width="800" height="400" style="" viewBox="0 0 800 400"><rect x="0" y="0" width="800" height="400" style="fill: rgb(255, 255, 255); fill-opacity: 1;"/><defs id="defs-f04964"><g class="clips"><clipPath id="clipf04964xyplot" class="plotclip"><rect width="304" height="220"/></clipPath><clipPath id="clipf04964x2y2plot" class="plotclip"><rect width="304" height="220"/></clipPath><clipPath class="axesclip" id="clipf04964x"><rect x="80" y="0" width="304" height="400"/></clipPath><clipPath class="axesclip" id="clipf04964y"><rect x="0" y="100" width="800" height="220"/></clipPath><clipPath class="axesclip" id="clipf04964xy"><rect x="80" y="100" width="304" height="220"/></clipPath><clipPath class="axesclip" id="clipf04964y2"><rect x="0" y="100" width="800" height="220"/></clipPath><clipPath class="axesclip" id="clipf04964xy2"><rect x="80" y="100" width="304" height="220"/></clipPath><clipPath class="axesclip" id="clipf04964x2"><rect x="416" y="0" width="304" height="400"/></clipPath><clipPath class="axesclip" id="clipf04964x2y"><rect x="416" y="100" width="304" height="220"/></clipPath><clipPath class="axesclip" id="clipf04964x2y2"><rect x="416" y="100" width="304" height="220"/></clipPath></g><g class="gradients"/><g class="patterns"/></defs><g class="bglayer"><rect class="bg" x="80" y="100" width="304" height="220" style="fill: rgb(255, 255, 255); fill-opacity: 1; stroke-width: 0;"/><rect class="bg" x="416" y="100" width="304" height="220" style="fill: rgb(255, 255, 255); fill-opacity: 1; stroke-width: 0;"/></g><g class="layer-below"><g class="imagelayer"/><g class="shapelayer"/></g><g class="cartesianlayer"><g class="subplot xy"><g class="layer-subplot"><g class="shapelayer"/><g class="imagelayer"/></g><g class="minor-gridlayer"><g class="x"/><g class="y"/></g><g class="gridlayer"><g class="x"><path class="xgrid crisp" transform="translate(135.27,0)" d="M0,100v220" style="stroke: rgb(255, 255, 255); stroke-opacity: 1; stroke-width: 1px;"/><path class="xgrid crisp" transform="translate(190.55,0)" d="M0,100v220" style="stroke: rgb(255, 255, 255); stroke-opacity: 1; stroke-width: 1px;"/><path class="xgrid crisp" transform="translate(245.82,0)" d="M0,100v220" style="stroke: rgb(255, 255, 255); stroke-opacity: 1; stroke-width: 1px;"/><path class="xgrid crisp" transform="translate(301.09000000000003,0)" d="M0,100v220" style="stroke: rgb(255, 255, 255); stroke-opacity: 1; stroke-width: 1px;"/><path class="xgrid crisp" transform="translate(356.36,0)" d="M0,100v220" style="stroke: rgb(255, 255, 255); stroke-opacity: 1; stroke-width: 1px;"/></g><g class="y"><path class="ygrid crisp" transform="translate(0,295.56)" d="M80,0h304" style="stroke: rgb(255, 255, 255); stroke-opacity: 1; stroke-width: 1px;"/><path class="ygrid crisp" transform="translate(0,246.67)" d="M80,0h304" style="stroke: rgb(255, 255, 255); stroke-opacity: 1; stroke-width: 1px;"/><path class="ygrid crisp" transform="translate(0,197.78)" d="M80,0h304" style="stroke: rgb(255, 255, 255); stroke-opacity: 1; stroke-width: 1px;"/><path class="ygrid crisp" transform="translate(0,148.89)" d="M80,0h304" style="stroke: rgb(255, 255, 255); stroke-opacity: 1; stroke-width: 1px;"/></g></g><g class="zerolinelayer"/><g class="layer-between"><g class="shapelayer"/><g class="imagelayer"/></g><path class="xlines-below"/><path class="ylines-below"/><g class="overlines-below"/><g class="xaxislayer-below"/><g class="yaxislayer-below"/><g class="overaxes-below"/><g class="overplot"><g class="xy" transform="translate(80,100)" clip-path="url(#clipf04964xyplot)"><g class="scatterlayer mlayer"><g class="trace scatter trace7fc3f4" style="stroke-miterlimit: 2; opacity: 1;"><g class="fills"/><g class="errorbars"/><g class="lines"><path class="js-line" d="M276.36,113.67L276.18,112.53L276.18,112.42L273.97,78.77L273.96,78.66L271.48,58.72L271.46,58.61L268.15,43.88L268.11,43.77L264.56,34.59L264.5,34.48L260.76,28.36L260.67,28.25L256.17,23.37L256.04,23.26L249.73,18.84L249.53,18.73L240.61,14.88L240.27,14.76L228.49,11.7L227.93,11.59L209.9,8.87L208.9,8.76L180.22,6.38L178.37,6.27L136.69,4.34L133.53,4.23L46.31,1.74L42.2,1.62L9.62,0.49" style="vector-effect: none; fill: none; stroke: rgb(128, 0, 128); stroke-opacity: 1; stroke-width: 2px; opacity: 1;"/></g><g class="points"/><g class="text"/></g><g class="trace scatter trace6c6840" style="stroke-miterlimit: 2; opacity: 1;"><g class="fills"/><g class="errorbars"/><g class="lines"><path class="js-line" d="M276.36,202.13L276.18,197.28L276.18,197.08L273.25,148.84L273.22,148.64L271.12,135.11L271.08,134.91L268.2,124.22L268.13,124.01L264.53,115.94L264.42,115.74L259.1,108.27L258.93,108.07L251.21,101L250.95,100.8L240.44,93.94L240.08,93.74L225.19,86.07L224.76,85.87L206.94,77.99L206.46,77.79L168.95,63.26L168.4,63.06L115.37,44.89L114.76,44.69L45.25,21.48L44.69,21.28L20.78,11.79L20.33,11.59L7.16,4.93L6.82,4.73L0.64,0.49" style="vector-effect: none; fill: none; stroke: rgb(1, 96, 198); stroke-opacity: 1; stroke-width: 2px; opacity: 1;"/></g><g class="points"/><g class="text"/></g><g class="trace scatter trace6238b0" style="stroke-miterlimit: 2; opacity: 1;"><g class="fills"/><g class="errorbars"/><g class="lines"><path class="js-line" d="M276.36,130.74L276.06,117.18L276.06,117.05L273.52,66.07L273.51,65.94L270.85,49.25L270.82,49.12L267.58,39.86L267.52,39.73L263.47,33.74L263.35,33.61L257.89,29.17L257.68,29.04L250.75,25.78L250.39,25.65L240.31,22.78L239.73,22.65L222.69,19.65L221.77,19.52L189.93,15.87L188.59,15.74L125.45,10.4L123.77,10.27L4.04,0.49" style="vector-effect: none; fill: none; stroke: rgb(255, 140, 3); stroke-opacity: 1; stroke-width: 2px; opacity: 1;"/></g><g class="points"/><g class="text"/></g><g class="trace scatter traced1cbcf" style="stroke-miterlimit: 2; opacity: 1;"><g class="fills"/><g class="errorbars"/><g class="lines"><path class="js-line" d="M276.36,113.67L277.1,3.43L277.12,3.32L277.95,0.49" style="vector-effect: none; fill: none; stroke: rgb(128, 0, 128); stroke-opacity: 1; stroke-dasharray: 9px, 9px; stroke-width: 2px; opacity: 1;"/></g><g class="points"/><g class="text"/></g><g class="trace scatter trace13707c" style="stroke-miterlimit: 2; opacity: 1;"><g class="fills"/><g class="errorbars"/><g class="lines"><path class="js-line" d="M276.36,202.13L276.99,85.66L277.01,85.46L278.6,68.51L278.62,68.31L287.2,12.6L287.24,12.4L290.1,1.7L290.2,1.5L290.74,0.49" style="vector-effect: none; fill: none; stroke: rgb(1, 96, 198); stroke-opacity: 1; stroke-dasharray: 9px, 9px; stroke-width: 2px; opacity: 1;"/></g><g class="points"/><g class="text"/></g><g class="trace scatter trace4ac4bc" style="stroke-miterlimit: 2; opacity: 1;"><g class="fills"/><g class="errorbars"/><g class="lines"><path class="js-line" d="M276.36,130.74L276.2,107.14L276.2,107.01L276.93,22.78L276.94,22.65L278.73,8.57L278.76,8.44L280.89,1.14L280.97,1.01L281.24,0.49" style="vector-effect: none; fill: none; stroke: rgb(255, 140, 3); stroke-opacity: 1; stroke-dasharray: 9px, 9px; stroke-width: 2px; opacity: 1;"/></g><g class="points"/><g class="text"/></g></g></g></g><g class="zerolinelayer-above"/><path class="xlines-above crisp" d="M79,320.5H385M79,99.5H385" style="fill: none; stroke-width: 1px; stroke: rgb(0, 0, 0); stroke-opacity: 1;"/><path class="ylines-above crisp" d="M79.5,100V320M384.5,100V320" style="fill: none; stroke-width: 1px; stroke: rgb(0, 0, 0); stroke-opacity: 1;"/><g class="overlines-above"/><g class="xaxislayer-above"><path class="xtick ticks crisp" d="M0,320v-5" transform="translate(135.27,0)" style="stroke: rgb(0, 0, 0); stroke-opacity: 1; stroke-width: 1px;"/><path class="xtick ticks crisp" d="M0,320v-5" transform="translate(190.55,0)" style="stroke: rgb(0, 0, 0); stroke-opacity: 1; stroke-width: 1px;"/><path class="xtick ticks crisp" d="M0,320v-5" transform="translate(245.82,0)" style="stroke: rgb(0, 0, 0); stroke-opacity: 1; stroke-width: 1px;"/><path class="xtick ticks crisp" d="M0,320v-5" transform="translate(301.09000000000003,0)" style="stroke: rgb(0, 0, 0); stroke-opacity: 1; stroke-width: 1px;"/><path class="xtick ticks crisp" d="M0,320v-5" transform="translate(356.36,0)" style="stroke: rgb(0, 0, 0); stroke-opacity: 1; stroke-width: 1px;"/><g class="xtick"><text text-anchor="middle" x="0" y="335.4" transform="translate(80,0)" style="font-family: Arial; font-size: 12px; fill: rgb(0, 0, 0); fill-opacity: 1; white-space: pre;">0</text></g><g class="xtick"><text text-anchor="middle" x="0" y="335.4" style="font-family: Arial; font-size: 12px; fill: rgb(0, 0, 0); fill-opacity: 1; white-space: pre;" transform="translate(135.27,0)">200</text></g><g class="xtick"><text text-anchor="middle" x="0" y="335.4" style="font-family: Arial; font-size: 12px; fill: rgb(0, 0, 0); fill-opacity: 1; white-space: pre;" transform="translate(190.55,0)">400</text></g><g class="xtick"><text text-anchor="middle" x="0" y="335.4" style="font-family: Arial; font-size: 12px; fill: rgb(0, 0, 0); fill-opacity: 1; white-space: pre;" transform="translate(245.82,0)">600</text></g><g class="xtick"><text text-anchor="middle" x="0" y="335.4" style="font-family: Arial; font-size: 12px; fill: rgb(0, 0, 0); fill-opacity: 1; white-space: pre;" transform="translate(301.09000000000003,0)">800</text></g><g class="xtick"><text text-anchor="middle" x="0" y="335.4" style="font-family: Arial; font-size: 12px; fill: rgb(0, 0, 0); fill-opacity: 1; white-space: pre;" transform="translate(356.36,0)">1000</text></g></g><g class="yaxislayer-above"><path class="ytick ticks crisp" d="M80,0h5" transform="translate(0,295.56)" style="stroke: rgb(0, 0, 0); stroke-opacity: 1; stroke-width: 1px;"/><path class="ytick ticks crisp" d="M80,0h5" transform="translate(0,246.67)" style="stroke: rgb(0, 0, 0); stroke-opacity: 1; stroke-width: 1px;"/><path class="ytick ticks crisp" d="M80,0h5" transform="translate(0,197.78)" style="stroke: rgb(0, 0, 0); stroke-opacity: 1; stroke-width: 1px;"/><path class="ytick ticks crisp" d="M80,0h5" transform="translate(0,148.89)" style="stroke: rgb(0, 0, 0); stroke-opacity: 1; stroke-width: 1px;"/><g class="ytick"><text text-anchor="end" x="76.6" y="4.199999999999999" transform="translate(0,295.56)" style="font-family: Arial; font-size: 12px; fill: rgb(0, 0, 0); fill-opacity: 1; white-space: pre;">400</text></g><g class="ytick"><text text-anchor="end" x="76.6" y="4.199999999999999" style="font-family: Arial; font-size: 12px; fill: rgb(0, 0, 0); fill-opacity: 1; white-space: pre;" transform="translate(0,246.67)">300</text></g><g class="ytick"><text text-anchor="end" x="76.6" y="4.199999999999999" style="font-family: Arial; font-size: 12px; fill: rgb(0, 0, 0); fill-opacity: 1; white-space: pre;" transform="translate(0,197.78)">200</text></g><g class="ytick"><text text-anchor="end" x="76.6" y="4.199999999999999" style="font-family: Arial; font-size: 12px; fill: rgb(0, 0, 0); fill-opacity: 1; white-space: pre;" transform="translate(0,148.89)">100</text></g><g class="ytick"><text text-anchor="end" x="76.6" y="4.199999999999999" style="font-family: Arial; font-size: 12px; fill: rgb(0, 0, 0); fill-opacity: 1; white-space: pre;" transform="translate(0,100)">0</text></g></g><g class="overaxes-above"/></g><g class="subplot x2y2"><g class="layer-subplot"><g class="shapelayer"/><g class="imagelayer"/></g><g class="minor-gridlayer"><g class="x2"/><g class="y2"/></g><g class="gridlayer"><g class="x2"><path class="x2grid crisp" transform="translate(517.33,0)" d="M0,100v220" style="stroke: rgb(255, 255, 255); stroke-opacity: 1; stroke-width: 1px;"/><path class="x2grid crisp" transform="translate(618.67,0)" d="M0,100v220" style="stroke: rgb(255, 255, 255); stroke-opacity: 1; stroke-width: 1px;"/></g><g class="y2"><path class="y2grid crisp" transform="translate(0,295.56)" d="M416,0h304" style="stroke: rgb(255, 255, 255); stroke-opacity: 1; stroke-width: 1px;"/><path class="y2grid crisp" transform="translate(0,246.67)" d="M416,0h304" style="stroke: rgb(255, 255, 255); stroke-opacity: 1; stroke-width: 1px;"/><path class="y2grid crisp" transform="translate(0,197.78)" d="M416,0h304" style="stroke: rgb(255, 255, 255); stroke-opacity: 1; stroke-width: 1px;"/><path class="y2grid crisp" transform="translate(0,148.89)" d="M416,0h304" style="stroke: rgb(255, 255, 255); stroke-opacity: 1; stroke-width: 1px;"/></g></g><g class="zerolinelayer"/><g class="layer-between"><g class="shapelayer"/><g class="imagelayer"/></g><path class="xlines-below"/><path class="ylines-below"/><g class="overlines-below"/><g class="xaxislayer-below"/><g class="yaxislayer-below"/><g class="overaxes-below"/><g class="overplot"><g class="x2y2" transform="translate(416,100)" clip-path="url(#clipf04964x2y2plot)"><g class="scatterlayer mlayer"><g class="trace scatter tracea523d9" style="stroke-miterlimit: 2; opacity: 1;"><g class="fills"/><g class="errorbars"/><g class="lines"><path class="js-line" d="M101.33,0L101.33,220" style="vector-effect: none; fill: none; stroke: rgb(169, 169, 169); stroke-opacity: 1; stroke-dasharray: 3px, 3px; stroke-width: 1.2px; opacity: 1;"/></g><g class="points"/><g class="text"/></g><g class="trace scatter trace194d64" style="stroke-miterlimit: 2; opacity: 1;"><g class="fills"/><g class="errorbars"/><g class="lines"><path class="js-line" d="M165.31,113.55L171.96,80.93L171.99,80.81L179.5,55.77L179.54,55.66L187.51,37.87L187.57,37.76L195.07,26.43L195.16,26.32L201.25,19.75L201.38,19.64L206.83,15.22L206.99,15.1L215.19,10.35L215.44,10.23L224.81,6.72L225.19,6.61L235.69,4.23L236.35,4.11L253.68,2.07L255.12,1.96L282.97,0.6L287.63,0.49" style="vector-effect: none; fill: none; stroke: rgb(128, 0, 128); stroke-opacity: 1; stroke-width: 2px; opacity: 1;"/></g><g class="points"/><g class="text"/></g><g class="trace scatter trace08d1c4" style="stroke-miterlimit: 2; opacity: 1;"><g class="fills"/><g class="errorbars"/><g class="lines"><path class="js-line" d="M147.5,201.92L147.41,200.91L147.44,200.71L152.55,171.65L152.59,171.45L158.23,145.81L158.28,145.61L165.85,118.36L165.91,118.16L183.39,61.65L183.47,61.44L189.1,49.33L189.21,49.13L196.34,37.63L196.49,37.43L203.31,29.15L203.5,28.95L211.39,21.68L211.64,21.48L220.92,15.22L221.27,15.02L231.48,10.18L231.99,9.98L242.64,6.54L243.41,6.34L257.63,3.52L259.02,3.31L277.3,1.5L280.58,1.3L300.65,0.49" style="vector-effect: none; fill: none; stroke: rgb(1, 96, 198); stroke-opacity: 1; stroke-width: 2px; opacity: 1;"/></g><g class="points"/><g class="text"/></g><g class="trace scatter trace5885cc" style="stroke-miterlimit: 2; opacity: 1;"><g class="fills"/><g class="errorbars"/><g class="lines"><path class="js-line" d="M145.92,130.61L146.66,125.92L146.69,125.79L150.21,107.14L150.24,107.01L154.56,88.5L154.6,88.37L160.06,70.24L160.11,70.11L165.91,55.64L165.97,55.51L171.89,44.43L171.97,44.3L178.28,35.43L178.39,35.3L186.06,27.35L186.21,27.22L196.66,19.13L196.84,19L208.64,11.83L208.91,11.7L218.09,7.92L218.48,7.79L229.91,4.79L230.56,4.66L245.6,2.44L246.84,2.31L268.04,0.88L272.22,0.75L281.86,0.49" style="vector-effect: none; fill: none; stroke: rgb(255, 140, 3); stroke-opacity: 1; stroke-width: 2px; opacity: 1;"/></g><g class="points"/><g class="text"/></g><g class="trace scatter trace49bf3d" style="stroke-miterlimit: 2; opacity: 1;"><g class="fills"/><g class="errorbars"/><g class="lines"><path class="js-line" d="M104.4,113.55L100.34,99.17L100.3,99.05L95.34,87.72L95.28,87.61L90.17,78.77L90.1,78.66L80.81,65.86L80.72,65.74L66.92,50.11L66.81,50L52.64,35.72L52.53,35.61L14.87,0.49" style="vector-effect: none; fill: none; stroke: rgb(128, 0, 128); stroke-opacity: 1; stroke-dasharray: 9.6px, 9.6px; stroke-width: 3.2px; opacity: 1;"/></g><g class="points"/><g class="text"/></g><g class="trace scatter traceb22559" style="stroke-miterlimit: 2; opacity: 1;"><g class="fills"/><g class="errorbars"/><g class="lines"><path class="js-line" d="M108.94,201.92L108.19,149.65L108.18,149.45L106.28,124.82L106.25,124.62L104.39,113.52L104.35,113.32L100.13,98.58L100.05,98.38L95.94,88.89L95.84,88.69L87.07,74.16L86.93,73.96L77.84,62.25L77.67,62.05L63.65,46.71L63.45,46.51L47.08,30.36L46.87,30.16L14.87,0.49" style="vector-effect: none; fill: none; stroke: rgb(1, 96, 198); stroke-opacity: 1; stroke-dasharray: 9px, 9px; stroke-width: 2px; opacity: 1;"/></g><g class="points"/><g class="text"/></g><g class="trace scatter tracec36d13" style="stroke-miterlimit: 2; opacity: 1;"><g class="fills"/><g class="errorbars"/><g class="lines"><path class="js-line" d="M132.13,130.61L130.42,118.09L130.39,117.96L127.99,107.27L127.95,107.14L124.23,96.19L124.17,96.06L119.81,86.8L119.74,86.67L113.01,75.72L112.92,75.59L103.63,63.46L103.52,63.33L89.42,47.82L89.3,47.69L59.24,18.61L59.1,18.48L39.5,0.49" style="vector-effect: none; fill: none; stroke: rgb(255, 140, 3); stroke-opacity: 1; stroke-dasharray: 9px, 9px; stroke-width: 2px; opacity: 1;"/></g><g class="points"/><g class="text"/></g></g></g></g><g class="zerolinelayer-above"/><path class="xlines-above crisp" d="M415,320.5H721M415,99.5H721" style="fill: none; stroke-width: 1px; stroke: rgb(0, 0, 0); stroke-opacity: 1;"/><path class="ylines-above crisp" d="M415.5,100V320M720.5,100V320" style="fill: none; stroke-width: 1px; stroke: rgb(0, 0, 0); stroke-opacity: 1;"/><g class="overlines-above"/><g class="xaxislayer-above"><path class="x2tick ticks crisp" d="M0,320v-5" transform="translate(517.33,0)" style="stroke: rgb(0, 0, 0); stroke-opacity: 1; stroke-width: 1px;"/><path class="x2tick ticks crisp" d="M0,320v-5" transform="translate(618.67,0)" style="stroke: rgb(0, 0, 0); stroke-opacity: 1; stroke-width: 1px;"/><g class="x2tick"><text text-anchor="middle" x="0" y="338.4" transform="translate(416,0)" style="font-family: Arial; font-size: 15px; fill: rgb(0, 0, 0); fill-opacity: 1; white-space: pre;">10​<tspan style="font-size:70%" dy="-0.6em">−2</tspan><tspan dy="0.42em">​</tspan></text></g><g class="x2tick"><text text-anchor="middle" x="0" y="338.4" style="font-family: Arial; font-size: 15px; fill: rgb(0, 0, 0); fill-opacity: 1; white-space: pre;" transform="translate(517.33,0)">1</text></g><g class="x2tick"><text text-anchor="middle" x="0" y="338.4" style="font-family: Arial; font-size: 15px; fill: rgb(0, 0, 0); fill-opacity: 1; white-space: pre;" transform="translate(618.67,0)">10​<tspan style="font-size:70%" dy="-0.6em">2</tspan><tspan dy="0.42em">​</tspan></text></g><g class="x2tick"><text text-anchor="middle" x="0" y="338.4" style="font-family: Arial; font-size: 15px; fill: rgb(0, 0, 0); fill-opacity: 1; white-space: pre;" transform="translate(720,0)">10​<tspan style="font-size:70%" dy="-0.6em">4</tspan><tspan dy="0.42em">​</tspan></text></g></g><g class="yaxislayer-above"><path class="y2tick ticks crisp" d="M416,0h5" transform="translate(0,295.56)" style="stroke: rgb(0, 0, 0); stroke-opacity: 1; stroke-width: 1px;"/><path class="y2tick ticks crisp" d="M416,0h5" transform="translate(0,246.67)" style="stroke: rgb(0, 0, 0); stroke-opacity: 1; stroke-width: 1px;"/><path class="y2tick ticks crisp" d="M416,0h5" transform="translate(0,197.78)" style="stroke: rgb(0, 0, 0); stroke-opacity: 1; stroke-width: 1px;"/><path class="y2tick ticks crisp" d="M416,0h5" transform="translate(0,148.89)" style="stroke: rgb(0, 0, 0); stroke-opacity: 1; stroke-width: 1px;"/></g><g class="overaxes-above"/></g></g><g class="polarlayer"/><g class="smithlayer"/><g class="ternarylayer"/><g class="geolayer"/><g class="funnelarealayer"/><g class="pielayer"/><g class="iciclelayer"/><g class="treemaplayer"/><g class="sunburstlayer"/><g class="glimages"/><defs id="topdefs-f04964"><g class="clips"/></defs><g class="layer-above"><g class="imagelayer"/><g class="shapelayer"/></g><g class="infolayer"><g class="g-gtitle"/><g class="g-xtitle" transform="translate(0,3.6999999999999886)"><text class="xtitle" x="232" y="347.700390625" text-anchor="middle" style="opacity: 1; font-family: Arial; font-size: 14px; fill: rgb(0, 0, 0); fill-opacity: 1; white-space: pre;">S or Cl (ppm)</text></g><g class="g-x2title"><text class="x2title" x="568" y="350.700390625" text-anchor="middle" style="opacity: 1; font-family: Arial; font-size: 14px; fill: rgb(0, 0, 0); fill-opacity: 1; white-space: pre;"><tspan style="font-style:italic">K</tspan>​<tspan style="font-size:70%" dy="0.3em">d</tspan><tspan dy="-0.21em">​</tspan>​<tspan style="font-size:70%" dy="-0.6em">vapor-melt</tspan><tspan dy="0.42em">​</tspan></text></g><g class="g-ytitle"><text class="ytitle" transform="rotate(-90,52.168359375,210)" x="52.168359375" y="210" text-anchor="middle" style="opacity: 1; font-family: Arial; font-size: 14px; fill: rgb(0, 0, 0); fill-opacity: 1; white-space: pre;">Pressure (MPa)</text></g><g class="g-y2title"/><g class="annotation" data-index="0" style="opacity: 1;"><g class="annotation-text-g" transform="rotate(0,93.82,305.33000000000004)"><g class="cursor-pointer" transform="translate(83,295)"><rect class="bg" x="0.5" y="0.5" width="21" height="20" style="stroke-width: 1px; stroke: rgb(0, 0, 0); stroke-opacity: 0; fill: rgb(0, 0, 0); fill-opacity: 0;"/><text class="annotation-text" text-anchor="middle" x="11.171875" y="16" style="font-family: Arial; font-size: 15px; fill: rgb(0, 0, 0); fill-opacity: 1; white-space: pre;">(a)</text></g></g></g><g class="annotation" data-index="1" style="opacity: 1;"><g class="annotation-text-g" transform="rotate(0,121.45,153.78)"><g class="cursor-pointer" transform="translate(85,145)"><rect class="bg" x="0.5" y="0.5" width="72" height="17" style="stroke-width: 1px; stroke: rgb(0, 0, 0); stroke-opacity: 0; fill: rgb(0, 0, 0); fill-opacity: 0;"/><text class="annotation-text" text-anchor="middle" x="36.6796875" y="13" style="font-family: Arial; font-size: 12px; fill: rgb(128, 0, 128); fill-opacity: 1; white-space: pre;">— dry basalt</text></g></g></g><g class="annotation" data-index="2" style="opacity: 1;"><g class="annotation-text-g" transform="rotate(0,122.84,168.44)"><g class="cursor-pointer" transform="translate(85,159)"><rect class="bg" x="0.5" y="0.5" width="74" height="17" style="stroke-width: 1px; stroke: rgb(0, 0, 0); stroke-opacity: 0; fill: rgb(0, 0, 0); fill-opacity: 0;"/><text class="annotation-text" text-anchor="middle" x="37.6875" y="13" style="font-family: Arial; font-size: 12px; fill: rgb(1, 96, 198); fill-opacity: 1; white-space: pre;">— wet basalt</text></g></g></g><g class="annotation" data-index="3" style="opacity: 1;"><g class="annotation-text-g" transform="rotate(0,129.75,183.11)"><g class="cursor-pointer" transform="translate(86,174)"><rect class="bg" x="0.5" y="0.5" width="87" height="17" style="stroke-width: 1px; stroke: rgb(0, 0, 0); stroke-opacity: 0; fill: rgb(0, 0, 0); fill-opacity: 0;"/><text class="annotation-text" text-anchor="middle" x="44.359375" y="13" style="font-family: Arial; font-size: 12px; fill: rgb(255, 140, 3); fill-opacity: 1; white-space: pre;">— wet andesite</text></g></g></g><g class="annotation" data-index="4" style="opacity: 1;"><g class="annotation-text-g" transform="rotate(0,99.35,212.44)"><g class="cursor-pointer" transform="translate(85,203)"><rect class="bg" x="0.5" y="0.5" width="27" height="17" style="stroke-width: 1px; stroke: rgb(0, 0, 0); stroke-opacity: 0; fill: rgb(0, 0, 0); fill-opacity: 0;"/><text class="annotation-text" text-anchor="middle" x="14.671875" y="13" style="font-family: Arial; font-size: 12px; fill: rgb(0, 0, 0); fill-opacity: 1; white-space: pre;">— S</text></g></g></g><g class="annotation" data-index="5" style="opacity: 1;"><g class="annotation-text-g" transform="rotate(0,99.35,227.11)"><g class="cursor-pointer" transform="translate(81,218)"><rect class="bg" x="0.5" y="0.5" width="36" height="17" style="stroke-width: 1px; stroke: rgb(0, 0, 0); stroke-opacity: 0; fill: rgb(0, 0, 0); fill-opacity: 0;"/><text class="annotation-text" text-anchor="middle" x="18.6796875" y="13" style="font-family: Arial; font-size: 12px; fill: rgb(0, 0, 0); fill-opacity: 1; white-space: pre;">– – Cl</text></g></g></g><g class="annotation" data-index="6" style="opacity: 1;"><g class="annotation-text-g" transform="rotate(0,431.25,305.33000000000004)"><g class="cursor-pointer" transform="translate(420,295)"><rect class="bg" x="0.5" y="0.5" width="21" height="20" style="stroke-width: 1px; stroke: rgb(0, 0, 0); stroke-opacity: 0; fill: rgb(0, 0, 0); fill-opacity: 0;"/><text class="annotation-text" text-anchor="middle" x="11.171875" y="16" style="font-family: Arial; font-size: 15px; fill: rgb(0, 0, 0); fill-opacity: 1; white-space: pre;">(b)</text></g></g></g><g class="annotation" data-index="7" style="opacity: 1;"><g class="annotation-text-g" transform="rotate(0,661.48,153.78)"><g class="cursor-pointer" transform="translate(625,145)"><rect class="bg" x="0.5" y="0.5" width="72" height="17" style="stroke-width: 1px; stroke: rgb(0, 0, 0); stroke-opacity: 0; fill: rgb(0, 0, 0); fill-opacity: 0;"/><text class="annotation-text" text-anchor="middle" x="36.6796875" y="13" style="font-family: Arial; font-size: 12px; fill: rgb(128, 0, 128); fill-opacity: 1; white-space: pre;">— dry basalt</text></g></g></g><g class="annotation" data-index="8" style="opacity: 1;"><g class="annotation-text-g" transform="rotate(0,662.71,168.44)"><g class="cursor-pointer" transform="translate(625,159)"><rect class="bg" x="0.5" y="0.5" width="74" height="17" style="stroke-width: 1px; stroke: rgb(0, 0, 0); stroke-opacity: 0; fill: rgb(0, 0, 0); fill-opacity: 0;"/><text class="annotation-text" text-anchor="middle" x="37.6875" y="13" style="font-family: Arial; font-size: 12px; fill: rgb(1, 96, 198); fill-opacity: 1; white-space: pre;">— wet basalt</text></g></g></g><g class="annotation" data-index="9" style="opacity: 1;"><g class="annotation-text-g" transform="rotate(0,669.33,183.11)"><g class="cursor-pointer" transform="translate(625,174)"><rect class="bg" x="0.5" y="0.5" width="87" height="17" style="stroke-width: 1px; stroke: rgb(0, 0, 0); stroke-opacity: 0; fill: rgb(0, 0, 0); fill-opacity: 0;"/><text class="annotation-text" text-anchor="middle" x="44.359375" y="13" style="font-family: Arial; font-size: 12px; fill: rgb(255, 140, 3); fill-opacity: 1; white-space: pre;">— wet andesite</text></g></g></g><g class="annotation" data-index="10" style="opacity: 1;"><g class="annotation-text-g" transform="rotate(0,639.69,212.44)"><g class="cursor-pointer" transform="translate(626,203)"><rect class="bg" x="0.5" y="0.5" width="27" height="17" style="stroke-width: 1px; stroke: rgb(0, 0, 0); stroke-opacity: 0; fill: rgb(0, 0, 0); fill-opacity: 0;"/><text class="annotation-text" text-anchor="middle" x="14.671875" y="13" style="font-family: Arial; font-size: 12px; fill: rgb(0, 0, 0); fill-opacity: 1; white-space: pre;">— S</text></g></g></g><g class="annotation" data-index="11" style="opacity: 1;"><g class="annotation-text-g" transform="rotate(0,638.83,227.11)"><g class="cursor-pointer" transform="translate(620,218)"><rect class="bg" x="0.5" y="0.5" width="36" height="17" style="stroke-width: 1px; stroke: rgb(0, 0, 0); stroke-opacity: 0; fill: rgb(0, 0, 0); fill-opacity: 0;"/><text class="annotation-text" text-anchor="middle" x="18.6796875" y="13" style="font-family: Arial; font-size: 12px; fill: rgb(0, 0, 0); fill-opacity: 1; white-space: pre;">– – Cl</text></g></g></g></g></svg>